<mxfile host="app.diagrams.net" modified="2022-11-30T20:20:52.286Z" agent="5.0 (Windows NT 10.0; Win64; x64) AppleWebKit/537.36 (KHTML, like Gecko) Chrome/107.0.0.0 Safari/537.36" etag="uF7SLcRftODVESPZR5pg" version="20.6.0" type="github">
  <diagram name="Page-1" id="13e1069c-82ec-6db2-03f1-153e76fe0fe0">
    <mxGraphModel dx="1038" dy="1397" grid="1" gridSize="10" guides="1" tooltips="1" connect="1" arrows="1" fold="1" page="1" pageScale="1" pageWidth="1100" pageHeight="850" background="none" math="0" shadow="0">
      <root>
        <mxCell id="0" />
        <mxCell id="1" parent="0" />
        <mxCell id="7baba1c4bc27f4b0-2" value=":Product" style="shape=umlLifeline;perimeter=lifelinePerimeter;whiteSpace=wrap;html=1;container=1;collapsible=0;recursiveResize=0;outlineConnect=0;rounded=1;shadow=0;comic=0;labelBackgroundColor=none;strokeWidth=1;fontFamily=Verdana;fontSize=12;align=center;" parent="1" vertex="1">
          <mxGeometry x="240" y="80" width="100" height="580" as="geometry" />
        </mxCell>
        <mxCell id="7baba1c4bc27f4b0-10" value="" style="html=1;points=[];perimeter=orthogonalPerimeter;rounded=0;shadow=0;comic=0;labelBackgroundColor=none;strokeWidth=1;fontFamily=Verdana;fontSize=12;align=center;" parent="7baba1c4bc27f4b0-2" vertex="1">
          <mxGeometry x="45" y="100" width="10" height="70" as="geometry" />
        </mxCell>
        <mxCell id="7baba1c4bc27f4b0-3" value=":HoppingCart&lt;br&gt;" style="shape=umlLifeline;perimeter=lifelinePerimeter;whiteSpace=wrap;html=1;container=1;collapsible=0;recursiveResize=0;outlineConnect=0;rounded=1;shadow=0;comic=0;labelBackgroundColor=none;strokeWidth=1;fontFamily=Verdana;fontSize=12;align=center;" parent="1" vertex="1">
          <mxGeometry x="385" y="80" width="125" height="620" as="geometry" />
        </mxCell>
        <mxCell id="7baba1c4bc27f4b0-13" value="" style="html=1;points=[];perimeter=orthogonalPerimeter;rounded=0;shadow=0;comic=0;labelBackgroundColor=none;strokeWidth=1;fontFamily=Verdana;fontSize=12;align=center;" parent="7baba1c4bc27f4b0-3" vertex="1">
          <mxGeometry x="55" y="120" width="10" height="200" as="geometry" />
        </mxCell>
        <mxCell id="VdpEGze82gV8BoA5v8d8-7" value="" style="html=1;points=[];perimeter=orthogonalPerimeter;" vertex="1" parent="7baba1c4bc27f4b0-3">
          <mxGeometry x="55" y="370" width="10" height="40" as="geometry" />
        </mxCell>
        <mxCell id="VdpEGze82gV8BoA5v8d8-8" value="calculate cost" style="edgeStyle=orthogonalEdgeStyle;html=1;align=left;spacingLeft=2;endArrow=block;rounded=0;" edge="1" target="VdpEGze82gV8BoA5v8d8-7" parent="7baba1c4bc27f4b0-3" source="VdpEGze82gV8BoA5v8d8-7">
          <mxGeometry x="0.0625" y="-10" relative="1" as="geometry">
            <mxPoint x="55" y="440" as="sourcePoint" />
            <Array as="points">
              <mxPoint x="55" y="440" />
              <mxPoint x="90" y="440" />
              <mxPoint x="90" y="370" />
            </Array>
            <mxPoint as="offset" />
          </mxGeometry>
        </mxCell>
        <mxCell id="VdpEGze82gV8BoA5v8d8-10" value="delete item" style="html=1;verticalAlign=bottom;endArrow=block;labelBackgroundColor=none;fontFamily=Verdana;fontSize=12;elbow=vertical;edgeStyle=orthogonalEdgeStyle;curved=1;exitX=1.066;exitY=0.713;exitPerimeter=0;" edge="1" parent="7baba1c4bc27f4b0-3">
          <mxGeometry relative="1" as="geometry">
            <mxPoint x="65.66000000000008" y="220.01" as="sourcePoint" />
            <mxPoint x="60" y="259.1" as="targetPoint" />
            <Array as="points">
              <mxPoint x="130" y="220" />
              <mxPoint x="130" y="259" />
            </Array>
          </mxGeometry>
        </mxCell>
        <mxCell id="VdpEGze82gV8BoA5v8d8-11" value="change quantity" style="html=1;verticalAlign=bottom;endArrow=block;labelBackgroundColor=none;fontFamily=Verdana;fontSize=12;elbow=vertical;edgeStyle=orthogonalEdgeStyle;curved=1;exitX=1.066;exitY=0.713;exitPerimeter=0;" edge="1" parent="7baba1c4bc27f4b0-3">
          <mxGeometry relative="1" as="geometry">
            <mxPoint x="65.66000000000008" y="160.00999999999996" as="sourcePoint" />
            <mxPoint x="60" y="199.10000000000002" as="targetPoint" />
            <Array as="points">
              <mxPoint x="115" y="160.1" />
              <mxPoint x="115" y="199.10000000000002" />
            </Array>
          </mxGeometry>
        </mxCell>
        <mxCell id="VdpEGze82gV8BoA5v8d8-15" value="" style="html=1;points=[];perimeter=orthogonalPerimeter;" vertex="1" parent="7baba1c4bc27f4b0-3">
          <mxGeometry x="55" y="500" width="10" height="80" as="geometry" />
        </mxCell>
        <mxCell id="7baba1c4bc27f4b0-4" value=":Order" style="shape=umlLifeline;perimeter=lifelinePerimeter;whiteSpace=wrap;html=1;container=1;collapsible=0;recursiveResize=0;outlineConnect=0;rounded=1;shadow=0;comic=0;labelBackgroundColor=none;strokeWidth=1;fontFamily=Verdana;fontSize=12;align=center;" parent="1" vertex="1">
          <mxGeometry x="540" y="80" width="100" height="960" as="geometry" />
        </mxCell>
        <mxCell id="VdpEGze82gV8BoA5v8d8-25" value="review items" style="html=1;verticalAlign=bottom;endArrow=block;labelBackgroundColor=none;fontFamily=Verdana;fontSize=12;elbow=vertical;edgeStyle=orthogonalEdgeStyle;curved=1;exitX=1.066;exitY=0.713;exitPerimeter=0;" edge="1" parent="7baba1c4bc27f4b0-4">
          <mxGeometry relative="1" as="geometry">
            <mxPoint x="55.66000000000008" y="770.0100000000001" as="sourcePoint" />
            <mxPoint x="50" y="809.1" as="targetPoint" />
            <Array as="points">
              <mxPoint x="110" y="770" />
              <mxPoint x="110" y="809" />
            </Array>
          </mxGeometry>
        </mxCell>
        <mxCell id="VdpEGze82gV8BoA5v8d8-27" value="" style="html=1;points=[];perimeter=orthogonalPerimeter;" vertex="1" parent="7baba1c4bc27f4b0-4">
          <mxGeometry x="45" y="850" width="10" height="80" as="geometry" />
        </mxCell>
        <mxCell id="7baba1c4bc27f4b0-5" value=":PaymentMethod" style="shape=umlLifeline;perimeter=lifelinePerimeter;whiteSpace=wrap;html=1;container=1;collapsible=0;recursiveResize=0;outlineConnect=0;rounded=1;shadow=0;comic=0;labelBackgroundColor=none;strokeWidth=1;fontFamily=Verdana;fontSize=12;align=center;" parent="1" vertex="1">
          <mxGeometry x="680" y="80" width="100" height="960" as="geometry" />
        </mxCell>
        <mxCell id="VdpEGze82gV8BoA5v8d8-26" value="" style="html=1;points=[];perimeter=orthogonalPerimeter;" vertex="1" parent="7baba1c4bc27f4b0-5">
          <mxGeometry x="45" y="850" width="10" height="100" as="geometry" />
        </mxCell>
        <mxCell id="VdpEGze82gV8BoA5v8d8-29" value="" style="html=1;points=[];perimeter=orthogonalPerimeter;" vertex="1" parent="7baba1c4bc27f4b0-5">
          <mxGeometry x="45" y="660" width="10" height="80" as="geometry" />
        </mxCell>
        <mxCell id="VdpEGze82gV8BoA5v8d8-33" value="return validate status" style="html=1;verticalAlign=bottom;endArrow=open;dashed=1;endSize=8;labelBackgroundColor=none;fontFamily=Verdana;fontSize=12;edgeStyle=elbowEdgeStyle;elbow=vertical;exitX=0.14;exitY=0.847;exitDx=0;exitDy=0;exitPerimeter=0;" edge="1" parent="7baba1c4bc27f4b0-5" source="VdpEGze82gV8BoA5v8d8-31">
          <mxGeometry relative="1" as="geometry">
            <mxPoint x="55" y="730" as="targetPoint" />
            <Array as="points">
              <mxPoint x="130" y="730" />
              <mxPoint x="160" y="730" />
            </Array>
            <mxPoint x="185" y="730" as="sourcePoint" />
          </mxGeometry>
        </mxCell>
        <mxCell id="VdpEGze82gV8BoA5v8d8-37" value="return payment status" style="html=1;verticalAlign=bottom;endArrow=open;dashed=1;endSize=8;labelBackgroundColor=none;fontFamily=Verdana;fontSize=12;edgeStyle=elbowEdgeStyle;elbow=vertical;exitX=-0.18;exitY=0.882;exitDx=0;exitDy=0;exitPerimeter=0;" edge="1" parent="7baba1c4bc27f4b0-5" source="VdpEGze82gV8BoA5v8d8-34">
          <mxGeometry y="-10" relative="1" as="geometry">
            <mxPoint x="55" y="920" as="targetPoint" />
            <Array as="points">
              <mxPoint x="130" y="920" />
              <mxPoint x="160" y="920" />
            </Array>
            <mxPoint x="185" y="920" as="sourcePoint" />
            <mxPoint as="offset" />
          </mxGeometry>
        </mxCell>
        <mxCell id="7baba1c4bc27f4b0-6" value=":BankVerification" style="shape=umlLifeline;perimeter=lifelinePerimeter;whiteSpace=wrap;html=1;container=1;collapsible=0;recursiveResize=0;outlineConnect=0;rounded=1;shadow=0;comic=0;labelBackgroundColor=none;strokeWidth=1;fontFamily=Verdana;fontSize=12;align=center;" parent="1" vertex="1">
          <mxGeometry x="830" y="80" width="100" height="980" as="geometry" />
        </mxCell>
        <mxCell id="VdpEGze82gV8BoA5v8d8-31" value="" style="html=1;points=[];perimeter=orthogonalPerimeter;" vertex="1" parent="7baba1c4bc27f4b0-6">
          <mxGeometry x="45" y="660" width="10" height="80" as="geometry" />
        </mxCell>
        <mxCell id="VdpEGze82gV8BoA5v8d8-34" value="" style="html=1;points=[];perimeter=orthogonalPerimeter;" vertex="1" parent="7baba1c4bc27f4b0-6">
          <mxGeometry x="45" y="850" width="10" height="80" as="geometry" />
        </mxCell>
        <mxCell id="7baba1c4bc27f4b0-8" value=":User" style="shape=umlLifeline;perimeter=lifelinePerimeter;whiteSpace=wrap;html=1;container=1;collapsible=0;recursiveResize=0;outlineConnect=0;rounded=1;shadow=0;comic=0;labelBackgroundColor=none;strokeWidth=1;fontFamily=Verdana;fontSize=12;align=center;" parent="1" vertex="1">
          <mxGeometry x="100" y="80" width="100" height="940" as="geometry" />
        </mxCell>
        <mxCell id="7baba1c4bc27f4b0-9" value="" style="html=1;points=[];perimeter=orthogonalPerimeter;rounded=0;shadow=0;comic=0;labelBackgroundColor=none;strokeWidth=1;fontFamily=Verdana;fontSize=12;align=center;" parent="7baba1c4bc27f4b0-8" vertex="1">
          <mxGeometry x="45" y="100" width="10" height="840" as="geometry" />
        </mxCell>
        <mxCell id="7baba1c4bc27f4b0-16" value="" style="html=1;points=[];perimeter=orthogonalPerimeter;rounded=0;shadow=0;comic=0;labelBackgroundColor=none;strokeWidth=1;fontFamily=Verdana;fontSize=12;align=center;" parent="1" vertex="1">
          <mxGeometry x="585" y="580" width="10" height="180" as="geometry" />
        </mxCell>
        <mxCell id="7baba1c4bc27f4b0-11" value="browse" style="html=1;verticalAlign=bottom;endArrow=block;entryX=0;entryY=0;labelBackgroundColor=none;fontFamily=Verdana;fontSize=12;edgeStyle=elbowEdgeStyle;elbow=vertical;" parent="1" source="7baba1c4bc27f4b0-9" target="7baba1c4bc27f4b0-10" edge="1">
          <mxGeometry relative="1" as="geometry">
            <mxPoint x="220" y="190" as="sourcePoint" />
          </mxGeometry>
        </mxCell>
        <mxCell id="7baba1c4bc27f4b0-14" value="add to cart" style="html=1;verticalAlign=bottom;endArrow=block;entryX=0;entryY=0;labelBackgroundColor=none;fontFamily=Verdana;fontSize=12;edgeStyle=elbowEdgeStyle;elbow=vertical;" parent="1" source="7baba1c4bc27f4b0-10" target="7baba1c4bc27f4b0-13" edge="1">
          <mxGeometry relative="1" as="geometry">
            <mxPoint x="370" y="200" as="sourcePoint" />
          </mxGeometry>
        </mxCell>
        <mxCell id="VdpEGze82gV8BoA5v8d8-17" value="" style="edgeStyle=orthogonalEdgeStyle;rounded=0;orthogonalLoop=1;jettySize=auto;html=1;entryX=0.1;entryY=0.184;entryDx=0;entryDy=0;entryPerimeter=0;" edge="1" parent="1" source="VdpEGze82gV8BoA5v8d8-15" target="7baba1c4bc27f4b0-16">
          <mxGeometry relative="1" as="geometry">
            <mxPoint x="535" y="620" as="targetPoint" />
            <Array as="points">
              <mxPoint x="500" y="613" />
              <mxPoint x="500" y="613" />
            </Array>
          </mxGeometry>
        </mxCell>
        <mxCell id="VdpEGze82gV8BoA5v8d8-18" value="checkout" style="edgeLabel;html=1;align=center;verticalAlign=middle;resizable=0;points=[];" vertex="1" connectable="0" parent="VdpEGze82gV8BoA5v8d8-17">
          <mxGeometry x="-0.3309" y="1" relative="1" as="geometry">
            <mxPoint as="offset" />
          </mxGeometry>
        </mxCell>
        <mxCell id="VdpEGze82gV8BoA5v8d8-19" value="" style="html=1;points=[];perimeter=orthogonalPerimeter;" vertex="1" parent="1">
          <mxGeometry x="585" y="810" width="10" height="90" as="geometry" />
        </mxCell>
        <mxCell id="VdpEGze82gV8BoA5v8d8-21" value="add a payment method" style="html=1;verticalAlign=bottom;endArrow=block;rounded=0;entryX=0.02;entryY=0.495;entryDx=0;entryDy=0;entryPerimeter=0;exitX=0.5;exitY=0.714;exitDx=0;exitDy=0;exitPerimeter=0;" edge="1" parent="1" source="7baba1c4bc27f4b0-9" target="VdpEGze82gV8BoA5v8d8-29">
          <mxGeometry width="80" relative="1" as="geometry">
            <mxPoint x="160" y="780" as="sourcePoint" />
            <mxPoint x="720" y="780" as="targetPoint" />
            <Array as="points">
              <mxPoint x="440" y="780" />
            </Array>
          </mxGeometry>
        </mxCell>
        <mxCell id="VdpEGze82gV8BoA5v8d8-24" value="add or use old address" style="html=1;verticalAlign=bottom;endArrow=block;rounded=0;exitX=0.98;exitY=0.888;exitDx=0;exitDy=0;exitPerimeter=0;" edge="1" parent="1">
          <mxGeometry width="80" relative="1" as="geometry">
            <mxPoint x="154.79999999999995" y="859.5000000000001" as="sourcePoint" />
            <mxPoint x="585" y="860.14" as="targetPoint" />
          </mxGeometry>
        </mxCell>
        <mxCell id="VdpEGze82gV8BoA5v8d8-28" value="place order" style="html=1;verticalAlign=bottom;endArrow=block;rounded=0;exitX=1.06;exitY=0.152;exitDx=0;exitDy=0;exitPerimeter=0;" edge="1" parent="1" source="VdpEGze82gV8BoA5v8d8-27" target="VdpEGze82gV8BoA5v8d8-26">
          <mxGeometry width="80" relative="1" as="geometry">
            <mxPoint x="600" y="940" as="sourcePoint" />
            <mxPoint x="680" y="940" as="targetPoint" />
          </mxGeometry>
        </mxCell>
        <mxCell id="VdpEGze82gV8BoA5v8d8-30" value="use the payment" style="html=1;verticalAlign=bottom;endArrow=open;dashed=1;endSize=8;labelBackgroundColor=none;fontFamily=Verdana;fontSize=12;edgeStyle=elbowEdgeStyle;elbow=vertical;" edge="1" parent="1">
          <mxGeometry relative="1" as="geometry">
            <mxPoint x="595" y="820" as="targetPoint" />
            <Array as="points">
              <mxPoint x="670" y="820" />
              <mxPoint x="700" y="820" />
            </Array>
            <mxPoint x="725" y="820" as="sourcePoint" />
          </mxGeometry>
        </mxCell>
        <mxCell id="VdpEGze82gV8BoA5v8d8-32" value="verify the payment" style="html=1;verticalAlign=bottom;endArrow=block;rounded=0;entryX=0.1;entryY=0.498;entryDx=0;entryDy=0;entryPerimeter=0;exitX=0.98;exitY=0.508;exitDx=0;exitDy=0;exitPerimeter=0;" edge="1" parent="1" source="VdpEGze82gV8BoA5v8d8-29" target="VdpEGze82gV8BoA5v8d8-31">
          <mxGeometry width="80" relative="1" as="geometry">
            <mxPoint x="750" y="780" as="sourcePoint" />
            <mxPoint x="820" y="780" as="targetPoint" />
          </mxGeometry>
        </mxCell>
        <mxCell id="VdpEGze82gV8BoA5v8d8-36" value="send the transaction" style="html=1;verticalAlign=bottom;endArrow=block;rounded=0;entryX=0.5;entryY=0.25;entryDx=0;entryDy=0;entryPerimeter=0;" edge="1" parent="1" target="VdpEGze82gV8BoA5v8d8-34">
          <mxGeometry width="80" relative="1" as="geometry">
            <mxPoint x="735" y="950" as="sourcePoint" />
            <mxPoint x="860" y="950" as="targetPoint" />
          </mxGeometry>
        </mxCell>
        <mxCell id="VdpEGze82gV8BoA5v8d8-38" value="return order status" style="html=1;verticalAlign=bottom;endArrow=open;dashed=1;endSize=8;labelBackgroundColor=none;fontFamily=Verdana;fontSize=12;edgeStyle=elbowEdgeStyle;elbow=vertical;" edge="1" parent="1">
          <mxGeometry y="-10" relative="1" as="geometry">
            <mxPoint x="595" y="1000" as="targetPoint" />
            <Array as="points">
              <mxPoint x="670" y="1000" />
              <mxPoint x="700" y="1000" />
            </Array>
            <mxPoint x="725" y="1000" as="sourcePoint" />
            <mxPoint as="offset" />
          </mxGeometry>
        </mxCell>
        <mxCell id="VdpEGze82gV8BoA5v8d8-39" value="show the order result" style="html=1;verticalAlign=bottom;endArrow=open;dashed=1;endSize=8;labelBackgroundColor=none;fontFamily=Verdana;fontSize=12;edgeStyle=elbowEdgeStyle;elbow=vertical;entryX=0.5;entryY=0.976;entryDx=0;entryDy=0;entryPerimeter=0;" edge="1" parent="1" target="7baba1c4bc27f4b0-9">
          <mxGeometry y="-10" relative="1" as="geometry">
            <mxPoint x="160" y="1000" as="targetPoint" />
            <Array as="points">
              <mxPoint x="560" y="1000" />
            </Array>
            <mxPoint x="585" y="1000" as="sourcePoint" />
            <mxPoint as="offset" />
          </mxGeometry>
        </mxCell>
        <mxCell id="VdpEGze82gV8BoA5v8d8-40" value="User" style="shape=umlActor;verticalLabelPosition=bottom;verticalAlign=top;html=1;" vertex="1" parent="1">
          <mxGeometry x="135" y="-10" width="30" height="60" as="geometry" />
        </mxCell>
      </root>
    </mxGraphModel>
  </diagram>
</mxfile>
